{
	"patcher" : 	{
		"fileversion" : 1,
		"appversion" : 		{
			"major" : 8,
			"minor" : 1,
			"revision" : 8,
			"architecture" : "x64",
			"modernui" : 1
		}
,
		"classnamespace" : "box",
		"rect" : [ 134.0, 262.0, 1284.0, 772.0 ],
		"bglocked" : 0,
		"openinpresentation" : 0,
		"default_fontsize" : 12.0,
		"default_fontface" : 0,
		"default_fontname" : "Arial",
		"gridonopen" : 1,
		"gridsize" : [ 15.0, 15.0 ],
		"gridsnaponopen" : 1,
		"objectsnaponopen" : 1,
		"statusbarvisible" : 2,
		"toolbarvisible" : 1,
		"lefttoolbarpinned" : 0,
		"toptoolbarpinned" : 0,
		"righttoolbarpinned" : 0,
		"bottomtoolbarpinned" : 0,
		"toolbars_unpinned_last_save" : 0,
		"tallnewobj" : 0,
		"boxanimatetime" : 200,
		"enablehscroll" : 1,
		"enablevscroll" : 1,
		"devicewidth" : 0.0,
		"description" : "",
		"digest" : "",
		"tags" : "",
		"style" : "",
		"subpatcher_template" : "",
		"assistshowspatchername" : 0,
		"boxes" : [ 			{
				"box" : 				{
					"id" : "obj-15",
					"maxclass" : "comment",
					"numinlets" : 1,
					"numoutlets" : 0,
					"patching_rect" : [ 43.189569473266602, 15.0, 150.0, 20.0 ],
					"text" : "Trevor"
				}

			}
, 			{
				"box" : 				{
					"fontname" : "Arial",
					"fontsize" : 13.0,
					"id" : "obj-2",
					"maxclass" : "message",
					"numinlets" : 2,
					"numoutlets" : 1,
					"outlettype" : [ "" ],
					"patching_rect" : [ 591.25, 35.0, 118.0, 23.0 ],
					"text" : "pattrstorage Trevor"
				}

			}
, 			{
				"box" : 				{
					"id" : "obj-9",
					"maxclass" : "preset",
					"numinlets" : 1,
					"numoutlets" : 4,
					"outlettype" : [ "preset", "int", "preset", "int" ],
					"patching_rect" : [ 591.0, 79.0, 100.0, 40.0 ]
				}

			}
, 			{
				"box" : 				{
					"id" : "obj-91",
					"maxclass" : "newobj",
					"numinlets" : 1,
					"numoutlets" : 1,
					"outlettype" : [ "" ],
					"patching_rect" : [ 772.0, 72.513096690177917, 199.0, 22.0 ],
					"saved_object_attributes" : 					{
						"client_rect" : [ 4, 79, 343, 580 ],
						"parameter_enable" : 0,
						"parameter_mappable" : 0,
						"storage_rect" : [ 583, 69, 1034, 197 ]
					}
,
					"text" : "pattrstorage Trevor @outputmode 1",
					"varname" : "Trevor"
				}

			}
, 			{
				"box" : 				{
					"id" : "obj-4",
					"maxclass" : "newobj",
					"numinlets" : 5,
					"numoutlets" : 5,
					"outlettype" : [ "", "", "", "", "" ],
					"patching_rect" : [ 47.371245225270627, 140.0, 232.0, 22.0 ],
					"text" : "route /middleX /middleY /thumbX /thumbY"
				}

			}
, 			{
				"box" : 				{
					"id" : "obj-3",
					"maxclass" : "newobj",
					"numinlets" : 1,
					"numoutlets" : 1,
					"outlettype" : [ "" ],
					"patching_rect" : [ 47.371245225270627, 102.0, 97.0, 22.0 ],
					"text" : "udpreceive 9001"
				}

			}
, 			{
				"box" : 				{
					"id" : "obj-157",
					"maxclass" : "number",
					"numinlets" : 1,
					"numoutlets" : 2,
					"outlettype" : [ "", "bang" ],
					"parameter_enable" : 0,
					"patching_rect" : [ 461.0, 780.963416814804077, 50.0, 22.0 ]
				}

			}
, 			{
				"box" : 				{
					"id" : "obj-115",
					"maxclass" : "newobj",
					"numinlets" : 0,
					"numoutlets" : 1,
					"outlettype" : [ "" ],
					"patching_rect" : [ 461.0, 707.0, 42.0, 22.0 ],
					"text" : "r onoff"
				}

			}
, 			{
				"box" : 				{
					"id" : "obj-124",
					"linecount" : 2,
					"maxclass" : "message",
					"numinlets" : 2,
					"numoutlets" : 1,
					"outlettype" : [ "" ],
					"patching_rect" : [ 461.0, 823.0, 123.0, 35.0 ],
					"text" : ";\rMaster-mix active $1."
				}

			}
, 			{
				"box" : 				{
					"id" : "obj-61",
					"maxclass" : "newobj",
					"numinlets" : 6,
					"numoutlets" : 1,
					"outlettype" : [ "" ],
					"patching_rect" : [ 1097.75, 241.5, 93.0, 22.0 ],
					"text" : "scale 0 127 0 3."
				}

			}
, 			{
				"box" : 				{
					"format" : 6,
					"id" : "obj-64",
					"maxclass" : "flonum",
					"numinlets" : 1,
					"numoutlets" : 2,
					"outlettype" : [ "", "bang" ],
					"parameter_enable" : 0,
					"patching_rect" : [ 1097.75, 204.5, 50.0, 22.0 ]
				}

			}
, 			{
				"box" : 				{
					"id" : "obj-65",
					"maxclass" : "newobj",
					"numinlets" : 1,
					"numoutlets" : 1,
					"outlettype" : [ "signal" ],
					"patching_rect" : [ 1097.75, 310.5, 31.0, 22.0 ],
					"text" : "sig~"
				}

			}
, 			{
				"box" : 				{
					"format" : 6,
					"id" : "obj-70",
					"maxclass" : "flonum",
					"numinlets" : 1,
					"numoutlets" : 2,
					"outlettype" : [ "", "bang" ],
					"parameter_enable" : 0,
					"patching_rect" : [ 1097.75, 275.5, 50.0, 22.0 ]
				}

			}
, 			{
				"box" : 				{
					"id" : "obj-10",
					"maxclass" : "newobj",
					"numinlets" : 6,
					"numoutlets" : 1,
					"outlettype" : [ "" ],
					"patching_rect" : [ 814.0, 241.5, 93.0, 22.0 ],
					"text" : "scale 0 127 2 5."
				}

			}
, 			{
				"box" : 				{
					"format" : 6,
					"id" : "obj-13",
					"maxclass" : "flonum",
					"numinlets" : 1,
					"numoutlets" : 2,
					"outlettype" : [ "", "bang" ],
					"parameter_enable" : 0,
					"patching_rect" : [ 814.0, 204.5, 50.0, 22.0 ]
				}

			}
, 			{
				"box" : 				{
					"id" : "obj-14",
					"maxclass" : "newobj",
					"numinlets" : 1,
					"numoutlets" : 1,
					"outlettype" : [ "signal" ],
					"patching_rect" : [ 814.0, 310.5, 31.0, 22.0 ],
					"text" : "sig~"
				}

			}
, 			{
				"box" : 				{
					"format" : 6,
					"id" : "obj-18",
					"maxclass" : "flonum",
					"numinlets" : 1,
					"numoutlets" : 2,
					"outlettype" : [ "", "bang" ],
					"parameter_enable" : 0,
					"patching_rect" : [ 814.0, 275.5, 50.0, 22.0 ]
				}

			}
, 			{
				"box" : 				{
					"id" : "obj-120",
					"maxclass" : "comment",
					"numinlets" : 1,
					"numoutlets" : 0,
					"patching_rect" : [ 350.0, 15.0, 96.5, 20.0 ],
					"text" : "save presets"
				}

			}
, 			{
				"box" : 				{
					"id" : "obj-114",
					"maxclass" : "message",
					"numinlets" : 2,
					"numoutlets" : 1,
					"outlettype" : [ "" ],
					"patching_rect" : [ 404.5, 88.5, 33.0, 22.0 ],
					"text" : "read"
				}

			}
, 			{
				"box" : 				{
					"id" : "obj-110",
					"maxclass" : "message",
					"numinlets" : 2,
					"numoutlets" : 1,
					"outlettype" : [ "" ],
					"patching_rect" : [ 350.0, 88.5, 34.0, 22.0 ],
					"text" : "write"
				}

			}
, 			{
				"box" : 				{
					"id" : "obj-104",
					"maxclass" : "newobj",
					"numinlets" : 1,
					"numoutlets" : 1,
					"outlettype" : [ "" ],
					"patching_rect" : [ 350.0, 136.0, 229.0, 22.0 ],
					"saved_object_attributes" : 					{
						"client_rect" : [ 4, 79, 343, 580 ],
						"parameter_enable" : 0,
						"parameter_mappable" : 0,
						"storage_rect" : [ 583, 69, 1034, 197 ]
					}
,
					"text" : "pattrstorage partnersynths @savemode 0",
					"varname" : "partnersynths"
				}

			}
, 			{
				"box" : 				{
					"id" : "obj-86",
					"maxclass" : "newobj",
					"numinlets" : 1,
					"numoutlets" : 4,
					"outlettype" : [ "", "", "", "" ],
					"patching_rect" : [ 350.0, 48.5, 56.0, 22.0 ],
					"text" : "autopattr",
					"varname" : "u124012089"
				}

			}
, 			{
				"box" : 				{
					"id" : "obj-19",
					"maxclass" : "newobj",
					"numinlets" : 1,
					"numoutlets" : 1,
					"outlettype" : [ "" ],
					"patcher" : 					{
						"fileversion" : 1,
						"appversion" : 						{
							"major" : 8,
							"minor" : 1,
							"revision" : 8,
							"architecture" : "x64",
							"modernui" : 1
						}
,
						"classnamespace" : "box",
						"rect" : [ 2547.0, 397.0, 640.0, 480.0 ],
						"bglocked" : 0,
						"openinpresentation" : 0,
						"default_fontsize" : 12.0,
						"default_fontface" : 0,
						"default_fontname" : "Arial",
						"gridonopen" : 1,
						"gridsize" : [ 15.0, 15.0 ],
						"gridsnaponopen" : 1,
						"objectsnaponopen" : 1,
						"statusbarvisible" : 2,
						"toolbarvisible" : 1,
						"lefttoolbarpinned" : 0,
						"toptoolbarpinned" : 0,
						"righttoolbarpinned" : 0,
						"bottomtoolbarpinned" : 0,
						"toolbars_unpinned_last_save" : 0,
						"tallnewobj" : 0,
						"boxanimatetime" : 200,
						"enablehscroll" : 1,
						"enablevscroll" : 1,
						"devicewidth" : 0.0,
						"description" : "",
						"digest" : "",
						"tags" : "",
						"style" : "",
						"subpatcher_template" : "",
						"assistshowspatchername" : 0,
						"boxes" : [ 							{
								"box" : 								{
									"comment" : "",
									"id" : "obj-2",
									"index" : 1,
									"maxclass" : "outlet",
									"numinlets" : 1,
									"numoutlets" : 0,
									"patching_rect" : [ 197.0, 397.0, 30.0, 30.0 ]
								}

							}
, 							{
								"box" : 								{
									"comment" : "",
									"id" : "obj-1",
									"index" : 1,
									"maxclass" : "inlet",
									"numinlets" : 0,
									"numoutlets" : 1,
									"outlettype" : [ "" ],
									"patching_rect" : [ 197.0, 55.0, 30.0, 30.0 ]
								}

							}
, 							{
								"box" : 								{
									"fontname" : "Arial",
									"fontsize" : 12.0,
									"hidden" : 1,
									"id" : "obj-112",
									"maxclass" : "newobj",
									"numinlets" : 1,
									"numoutlets" : 1,
									"outlettype" : [ "" ],
									"patching_rect" : [ 278.0, 140.0, 85.0, 22.0 ],
									"text" : "loadmess 150"
								}

							}
, 							{
								"box" : 								{
									"bgcolor" : [ 0.866667, 0.866667, 0.866667, 1.0 ],
									"fontname" : "Arial",
									"fontsize" : 12.0,
									"htricolor" : [ 0.87, 0.82, 0.24, 1.0 ],
									"id" : "obj-113",
									"maxclass" : "number",
									"numinlets" : 1,
									"numoutlets" : 2,
									"outlettype" : [ "", "bang" ],
									"parameter_enable" : 0,
									"patching_rect" : [ 249.0, 192.083334416151047, 42.0, 22.0 ],
									"textcolor" : [ 0.0, 0.0, 0.0, 1.0 ],
									"tricolor" : [ 0.75, 0.75, 0.75, 1.0 ],
									"triscale" : 0.9
								}

							}
, 							{
								"box" : 								{
									"fontname" : "Arial",
									"fontsize" : 12.0,
									"id" : "obj-115",
									"maxclass" : "newobj",
									"numinlets" : 2,
									"numoutlets" : 1,
									"outlettype" : [ "" ],
									"patching_rect" : [ 203.0, 219.0, 65.0, 22.0 ],
									"text" : "pack i 150"
								}

							}
, 							{
								"box" : 								{
									"id" : "obj-118",
									"maxclass" : "slider",
									"numinlets" : 1,
									"numoutlets" : 1,
									"orientation" : 1,
									"outlettype" : [ "" ],
									"parameter_enable" : 0,
									"patching_rect" : [ 203.0, 319.0, 144.0, 18.0 ]
								}

							}
, 							{
								"box" : 								{
									"id" : "obj-119",
									"maxclass" : "slider",
									"numinlets" : 1,
									"numoutlets" : 1,
									"orientation" : 1,
									"outlettype" : [ "" ],
									"parameter_enable" : 0,
									"patching_rect" : [ 223.0, 163.083334416151047, 144.0, 18.0 ]
								}

							}
, 							{
								"box" : 								{
									"bgcolor" : [ 0.866667, 0.866667, 0.866667, 1.0 ],
									"fontname" : "Arial",
									"fontsize" : 12.0,
									"htricolor" : [ 0.87, 0.82, 0.24, 1.0 ],
									"id" : "obj-121",
									"maxclass" : "number",
									"numinlets" : 1,
									"numoutlets" : 2,
									"outlettype" : [ "", "bang" ],
									"parameter_enable" : 0,
									"patching_rect" : [ 203.0, 273.0, 37.0, 22.0 ],
									"textcolor" : [ 0.0, 0.0, 0.0, 1.0 ],
									"tricolor" : [ 0.75, 0.75, 0.75, 1.0 ],
									"triscale" : 0.9
								}

							}
, 							{
								"box" : 								{
									"fontname" : "Arial",
									"fontsize" : 12.0,
									"id" : "obj-122",
									"maxclass" : "newobj",
									"numinlets" : 3,
									"numoutlets" : 2,
									"outlettype" : [ "", "bang" ],
									"patching_rect" : [ 203.0, 244.0, 47.0, 22.0 ],
									"text" : "line"
								}

							}
, 							{
								"box" : 								{
									"fontname" : "Arial",
									"fontsize" : 12.0,
									"id" : "obj-123",
									"maxclass" : "comment",
									"numinlets" : 1,
									"numoutlets" : 0,
									"patching_rect" : [ 219.0, 108.0, 130.0, 20.0 ],
									"text" : "using line as a filter"
								}

							}
, 							{
								"box" : 								{
									"angle" : 0.0,
									"bgcolor" : [ 0.501961, 0.501961, 0.501961, 0.35 ],
									"id" : "obj-129",
									"maxclass" : "panel",
									"mode" : 0,
									"numinlets" : 1,
									"numoutlets" : 0,
									"patching_rect" : [ 162.0, 102.0, 211.0, 278.0 ]
								}

							}
 ],
						"lines" : [ 							{
								"patchline" : 								{
									"destination" : [ "obj-115", 0 ],
									"order" : 1,
									"source" : [ "obj-1", 0 ]
								}

							}
, 							{
								"patchline" : 								{
									"destination" : [ "obj-119", 0 ],
									"order" : 0,
									"source" : [ "obj-1", 0 ]
								}

							}
, 							{
								"patchline" : 								{
									"destination" : [ "obj-113", 0 ],
									"hidden" : 1,
									"source" : [ "obj-112", 0 ]
								}

							}
, 							{
								"patchline" : 								{
									"destination" : [ "obj-115", 1 ],
									"source" : [ "obj-113", 0 ]
								}

							}
, 							{
								"patchline" : 								{
									"destination" : [ "obj-122", 0 ],
									"source" : [ "obj-115", 0 ]
								}

							}
, 							{
								"patchline" : 								{
									"destination" : [ "obj-118", 0 ],
									"order" : 1,
									"source" : [ "obj-121", 0 ]
								}

							}
, 							{
								"patchline" : 								{
									"destination" : [ "obj-2", 0 ],
									"midpoints" : [ 212.5, 306.0, 189.0, 306.0, 189.0, 384.0, 206.5, 384.0 ],
									"order" : 0,
									"source" : [ "obj-121", 0 ]
								}

							}
, 							{
								"patchline" : 								{
									"destination" : [ "obj-121", 0 ],
									"source" : [ "obj-122", 0 ]
								}

							}
 ],
						"styles" : [ 							{
								"name" : "Audiomix",
								"default" : 								{
									"bgfillcolor" : 									{
										"type" : "gradient",
										"color1" : [ 0.376471, 0.384314, 0.4, 1.0 ],
										"color2" : [ 0.290196, 0.309804, 0.301961, 1.0 ],
										"color" : [ 0.290196, 0.309804, 0.301961, 1.0 ],
										"angle" : 270.0,
										"proportion" : 0.39
									}

								}
,
								"parentstyle" : "",
								"multi" : 0
							}
, 							{
								"name" : "Default M4L",
								"default" : 								{
									"patchlinecolor" : [ 0.290196, 0.309804, 0.301961, 0.85 ],
									"fontname" : [ "Arial Bold" ],
									"fontsize" : [ 11.0 ]
								}
,
								"parentstyle" : "",
								"multi" : 0
							}
, 							{
								"name" : "Default M4L Poletti",
								"default" : 								{
									"patchlinecolor" : [ 0.290196, 0.309804, 0.301961, 0.85 ],
									"fontname" : [ "Arial Bold" ],
									"fontsize" : [ 10.0 ]
								}
,
								"parentstyle" : "",
								"multi" : 0
							}
, 							{
								"name" : "Default M4L-1",
								"default" : 								{
									"fontname" : [ "Arial" ],
									"fontface" : [ 1 ],
									"bgfillcolor" : 									{
										"type" : "gradient",
										"color1" : [ 0.376471, 0.384314, 0.4, 1.0 ],
										"color2" : [ 0.290196, 0.309804, 0.301961, 1.0 ],
										"color" : [ 0.290196, 0.309804, 0.301961, 1.0 ],
										"angle" : 270.0,
										"proportion" : 0.39
									}
,
									"fontsize" : [ 11.0 ]
								}
,
								"parentstyle" : "",
								"multi" : 0
							}
, 							{
								"name" : "Max 12 Regular",
								"parentstyle" : "",
								"multi" : 0
							}
 ]
					}
,
					"patching_rect" : [ 207.121245225270627, 208.0, 41.0, 22.0 ],
					"saved_object_attributes" : 					{
						"description" : "",
						"digest" : "",
						"globalpatchername" : "",
						"tags" : ""
					}
,
					"text" : "p filter"
				}

			}
, 			{
				"box" : 				{
					"id" : "obj-20",
					"maxclass" : "newobj",
					"numinlets" : 1,
					"numoutlets" : 1,
					"outlettype" : [ "" ],
					"patcher" : 					{
						"fileversion" : 1,
						"appversion" : 						{
							"major" : 8,
							"minor" : 1,
							"revision" : 8,
							"architecture" : "x64",
							"modernui" : 1
						}
,
						"classnamespace" : "box",
						"rect" : [ 2547.0, 397.0, 640.0, 480.0 ],
						"bglocked" : 0,
						"openinpresentation" : 0,
						"default_fontsize" : 12.0,
						"default_fontface" : 0,
						"default_fontname" : "Arial",
						"gridonopen" : 1,
						"gridsize" : [ 15.0, 15.0 ],
						"gridsnaponopen" : 1,
						"objectsnaponopen" : 1,
						"statusbarvisible" : 2,
						"toolbarvisible" : 1,
						"lefttoolbarpinned" : 0,
						"toptoolbarpinned" : 0,
						"righttoolbarpinned" : 0,
						"bottomtoolbarpinned" : 0,
						"toolbars_unpinned_last_save" : 0,
						"tallnewobj" : 0,
						"boxanimatetime" : 200,
						"enablehscroll" : 1,
						"enablevscroll" : 1,
						"devicewidth" : 0.0,
						"description" : "",
						"digest" : "",
						"tags" : "",
						"style" : "",
						"subpatcher_template" : "",
						"assistshowspatchername" : 0,
						"boxes" : [ 							{
								"box" : 								{
									"comment" : "",
									"id" : "obj-2",
									"index" : 1,
									"maxclass" : "outlet",
									"numinlets" : 1,
									"numoutlets" : 0,
									"patching_rect" : [ 197.0, 397.0, 30.0, 30.0 ]
								}

							}
, 							{
								"box" : 								{
									"comment" : "",
									"id" : "obj-1",
									"index" : 1,
									"maxclass" : "inlet",
									"numinlets" : 0,
									"numoutlets" : 1,
									"outlettype" : [ "" ],
									"patching_rect" : [ 197.0, 55.0, 30.0, 30.0 ]
								}

							}
, 							{
								"box" : 								{
									"fontname" : "Arial",
									"fontsize" : 12.0,
									"hidden" : 1,
									"id" : "obj-112",
									"maxclass" : "newobj",
									"numinlets" : 1,
									"numoutlets" : 1,
									"outlettype" : [ "" ],
									"patching_rect" : [ 278.0, 140.0, 85.0, 22.0 ],
									"text" : "loadmess 150"
								}

							}
, 							{
								"box" : 								{
									"bgcolor" : [ 0.866667, 0.866667, 0.866667, 1.0 ],
									"fontname" : "Arial",
									"fontsize" : 12.0,
									"htricolor" : [ 0.87, 0.82, 0.24, 1.0 ],
									"id" : "obj-113",
									"maxclass" : "number",
									"numinlets" : 1,
									"numoutlets" : 2,
									"outlettype" : [ "", "bang" ],
									"parameter_enable" : 0,
									"patching_rect" : [ 249.0, 192.083334416151047, 42.0, 22.0 ],
									"textcolor" : [ 0.0, 0.0, 0.0, 1.0 ],
									"tricolor" : [ 0.75, 0.75, 0.75, 1.0 ],
									"triscale" : 0.9
								}

							}
, 							{
								"box" : 								{
									"fontname" : "Arial",
									"fontsize" : 12.0,
									"id" : "obj-115",
									"maxclass" : "newobj",
									"numinlets" : 2,
									"numoutlets" : 1,
									"outlettype" : [ "" ],
									"patching_rect" : [ 203.0, 219.0, 65.0, 22.0 ],
									"text" : "pack i 150"
								}

							}
, 							{
								"box" : 								{
									"id" : "obj-118",
									"maxclass" : "slider",
									"numinlets" : 1,
									"numoutlets" : 1,
									"orientation" : 1,
									"outlettype" : [ "" ],
									"parameter_enable" : 0,
									"patching_rect" : [ 203.0, 319.0, 144.0, 18.0 ]
								}

							}
, 							{
								"box" : 								{
									"id" : "obj-119",
									"maxclass" : "slider",
									"numinlets" : 1,
									"numoutlets" : 1,
									"orientation" : 1,
									"outlettype" : [ "" ],
									"parameter_enable" : 0,
									"patching_rect" : [ 223.0, 163.083334416151047, 144.0, 18.0 ]
								}

							}
, 							{
								"box" : 								{
									"bgcolor" : [ 0.866667, 0.866667, 0.866667, 1.0 ],
									"fontname" : "Arial",
									"fontsize" : 12.0,
									"htricolor" : [ 0.87, 0.82, 0.24, 1.0 ],
									"id" : "obj-121",
									"maxclass" : "number",
									"numinlets" : 1,
									"numoutlets" : 2,
									"outlettype" : [ "", "bang" ],
									"parameter_enable" : 0,
									"patching_rect" : [ 203.0, 273.0, 37.0, 22.0 ],
									"textcolor" : [ 0.0, 0.0, 0.0, 1.0 ],
									"tricolor" : [ 0.75, 0.75, 0.75, 1.0 ],
									"triscale" : 0.9
								}

							}
, 							{
								"box" : 								{
									"fontname" : "Arial",
									"fontsize" : 12.0,
									"id" : "obj-122",
									"maxclass" : "newobj",
									"numinlets" : 3,
									"numoutlets" : 2,
									"outlettype" : [ "", "bang" ],
									"patching_rect" : [ 203.0, 244.0, 47.0, 22.0 ],
									"text" : "line"
								}

							}
, 							{
								"box" : 								{
									"fontname" : "Arial",
									"fontsize" : 12.0,
									"id" : "obj-123",
									"maxclass" : "comment",
									"numinlets" : 1,
									"numoutlets" : 0,
									"patching_rect" : [ 219.0, 108.0, 130.0, 20.0 ],
									"text" : "using line as a filter"
								}

							}
, 							{
								"box" : 								{
									"angle" : 0.0,
									"bgcolor" : [ 0.501961, 0.501961, 0.501961, 0.35 ],
									"id" : "obj-129",
									"maxclass" : "panel",
									"mode" : 0,
									"numinlets" : 1,
									"numoutlets" : 0,
									"patching_rect" : [ 162.0, 102.0, 211.0, 278.0 ]
								}

							}
 ],
						"lines" : [ 							{
								"patchline" : 								{
									"destination" : [ "obj-115", 0 ],
									"order" : 1,
									"source" : [ "obj-1", 0 ]
								}

							}
, 							{
								"patchline" : 								{
									"destination" : [ "obj-119", 0 ],
									"order" : 0,
									"source" : [ "obj-1", 0 ]
								}

							}
, 							{
								"patchline" : 								{
									"destination" : [ "obj-113", 0 ],
									"hidden" : 1,
									"source" : [ "obj-112", 0 ]
								}

							}
, 							{
								"patchline" : 								{
									"destination" : [ "obj-115", 1 ],
									"source" : [ "obj-113", 0 ]
								}

							}
, 							{
								"patchline" : 								{
									"destination" : [ "obj-122", 0 ],
									"source" : [ "obj-115", 0 ]
								}

							}
, 							{
								"patchline" : 								{
									"destination" : [ "obj-118", 0 ],
									"order" : 1,
									"source" : [ "obj-121", 0 ]
								}

							}
, 							{
								"patchline" : 								{
									"destination" : [ "obj-2", 0 ],
									"midpoints" : [ 212.5, 306.0, 189.0, 306.0, 189.0, 384.0, 206.5, 384.0 ],
									"order" : 0,
									"source" : [ "obj-121", 0 ]
								}

							}
, 							{
								"patchline" : 								{
									"destination" : [ "obj-121", 0 ],
									"source" : [ "obj-122", 0 ]
								}

							}
 ],
						"styles" : [ 							{
								"name" : "Audiomix",
								"default" : 								{
									"bgfillcolor" : 									{
										"type" : "gradient",
										"color1" : [ 0.376471, 0.384314, 0.4, 1.0 ],
										"color2" : [ 0.290196, 0.309804, 0.301961, 1.0 ],
										"color" : [ 0.290196, 0.309804, 0.301961, 1.0 ],
										"angle" : 270.0,
										"proportion" : 0.39
									}

								}
,
								"parentstyle" : "",
								"multi" : 0
							}
, 							{
								"name" : "Default M4L",
								"default" : 								{
									"patchlinecolor" : [ 0.290196, 0.309804, 0.301961, 0.85 ],
									"fontname" : [ "Arial Bold" ],
									"fontsize" : [ 11.0 ]
								}
,
								"parentstyle" : "",
								"multi" : 0
							}
, 							{
								"name" : "Default M4L Poletti",
								"default" : 								{
									"patchlinecolor" : [ 0.290196, 0.309804, 0.301961, 0.85 ],
									"fontname" : [ "Arial Bold" ],
									"fontsize" : [ 10.0 ]
								}
,
								"parentstyle" : "",
								"multi" : 0
							}
, 							{
								"name" : "Default M4L-1",
								"default" : 								{
									"fontname" : [ "Arial" ],
									"fontface" : [ 1 ],
									"bgfillcolor" : 									{
										"type" : "gradient",
										"color1" : [ 0.376471, 0.384314, 0.4, 1.0 ],
										"color2" : [ 0.290196, 0.309804, 0.301961, 1.0 ],
										"color" : [ 0.290196, 0.309804, 0.301961, 1.0 ],
										"angle" : 270.0,
										"proportion" : 0.39
									}
,
									"fontsize" : [ 11.0 ]
								}
,
								"parentstyle" : "",
								"multi" : 0
							}
, 							{
								"name" : "Max 12 Regular",
								"parentstyle" : "",
								"multi" : 0
							}
 ]
					}
,
					"patching_rect" : [ 153.871245225270627, 208.0, 41.0, 22.0 ],
					"saved_object_attributes" : 					{
						"description" : "",
						"digest" : "",
						"globalpatchername" : "",
						"tags" : ""
					}
,
					"text" : "p filter"
				}

			}
, 			{
				"box" : 				{
					"bgmode" : 0,
					"border" : 0,
					"clickthrough" : 0,
					"enablehscroll" : 0,
					"enablevscroll" : 0,
					"extract" : 1,
					"id" : "obj-12",
					"lockeddragscroll" : 0,
					"maxclass" : "bpatcher",
					"name" : "bp.Xfade.maxpat",
					"numinlets" : 3,
					"numoutlets" : 1,
					"offset" : [ 0.0, 0.0 ],
					"outlettype" : [ "signal" ],
					"patching_rect" : [ 723.0, 792.0, 135.0, 116.0 ],
					"varname" : "bp.Xfade[2]",
					"viewvisibility" : 1
				}

			}
, 			{
				"box" : 				{
					"bgmode" : 0,
					"border" : 0,
					"clickthrough" : 0,
					"enablehscroll" : 0,
					"enablevscroll" : 0,
					"extract" : 1,
					"id" : "obj-5",
					"lockeddragscroll" : 0,
					"maxclass" : "bpatcher",
					"name" : "bp.Xfade.maxpat",
					"numinlets" : 3,
					"numoutlets" : 1,
					"offset" : [ 0.0, 0.0 ],
					"outlettype" : [ "signal" ],
					"patching_rect" : [ 729.0, 549.083334416151047, 135.0, 116.0 ],
					"varname" : "bp.Xfade[1]",
					"viewvisibility" : 1
				}

			}
, 			{
				"box" : 				{
					"bgmode" : 0,
					"border" : 0,
					"clickthrough" : 0,
					"enablehscroll" : 0,
					"enablevscroll" : 0,
					"extract" : 1,
					"id" : "obj-1",
					"lockeddragscroll" : 0,
					"maxclass" : "bpatcher",
					"name" : "bp.LFO.maxpat",
					"numinlets" : 0,
					"numoutlets" : 5,
					"offset" : [ 0.0, 0.0 ],
					"outlettype" : [ "signal", "signal", "signal", "signal", "signal" ],
					"patching_rect" : [ 932.0, 549.083334416151047, 137.0, 116.0 ],
					"varname" : "bp.LFO[1]",
					"viewvisibility" : 1
				}

			}
, 			{
				"box" : 				{
					"bgmode" : 0,
					"border" : 0,
					"clickthrough" : 0,
					"enablehscroll" : 0,
					"enablevscroll" : 0,
					"extract" : 1,
					"id" : "obj-7",
					"lockeddragscroll" : 0,
					"maxclass" : "bpatcher",
					"name" : "bp.Macro Oscillator.maxpat",
					"numinlets" : 5,
					"numoutlets" : 1,
					"offset" : [ 0.0, 0.0 ],
					"outlettype" : [ "signal" ],
					"patching_rect" : [ 1013.0, 350.0, 358.0, 116.0 ],
					"varname" : "bp.Macro Oscillator",
					"viewvisibility" : 1
				}

			}
, 			{
				"box" : 				{
					"bgmode" : 0,
					"border" : 0,
					"clickthrough" : 0,
					"enablehscroll" : 0,
					"enablevscroll" : 0,
					"extract" : 1,
					"id" : "obj-11",
					"lockeddragscroll" : 0,
					"maxclass" : "bpatcher",
					"name" : "bp.Cloud.maxpat",
					"numinlets" : 4,
					"numoutlets" : 1,
					"offset" : [ 0.0, 0.0 ],
					"outlettype" : [ "signal" ],
					"patching_rect" : [ 727.0, 350.0, 280.0, 116.0 ],
					"varname" : "bp.Cloud",
					"viewvisibility" : 1
				}

			}
, 			{
				"box" : 				{
					"id" : "obj-103",
					"maxclass" : "comment",
					"numinlets" : 1,
					"numoutlets" : 0,
					"patching_rect" : [ 301.541422247886658, 303.5, 150.0, 20.0 ],
					"text" : "effects modules"
				}

			}
, 			{
				"box" : 				{
					"bgmode" : 0,
					"border" : 0,
					"clickthrough" : 0,
					"enablehscroll" : 0,
					"enablevscroll" : 0,
					"extract" : 1,
					"id" : "obj-176",
					"lockeddragscroll" : 0,
					"maxclass" : "bpatcher",
					"name" : "bp.Sync Delay.maxpat",
					"numinlets" : 2,
					"numoutlets" : 2,
					"offset" : [ 0.0, 0.0 ],
					"outlettype" : [ "signal", "signal" ],
					"patching_rect" : [ 416.541422247886658, 358.0, 265.0, 116.0 ],
					"presentation" : 1,
					"presentation_rect" : [ 615.0, 98.872872829437256, 265.0, 116.0 ],
					"varname" : "bp.Sync Delay",
					"viewvisibility" : 1
				}

			}
, 			{
				"box" : 				{
					"annotation" : "A simple stereo audio mixing module. ",
					"bgcolor" : [ 0.780392156862745, 0.0, 1.0, 1.0 ],
					"bgmode" : 0,
					"border" : 0,
					"clickthrough" : 0,
					"enablehscroll" : 0,
					"enablevscroll" : 0,
					"id" : "obj-169",
					"lockeddragscroll" : 0,
					"maxclass" : "bpatcher",
					"name" : "AudioMix.maxpat",
					"numinlets" : 3,
					"numoutlets" : 3,
					"offset" : [ 0.0, 0.0 ],
					"outlettype" : [ "signal", "signal", "" ],
					"patching_rect" : [ 249.541422247886658, 726.083334416151047, 69.0, 139.0 ],
					"presentation" : 1,
					"presentation_rect" : [ 658.169490575790405, 534.262711763381958, 69.0, 139.0 ],
					"varname" : "AudioMix[1]",
					"viewvisibility" : 1
				}

			}
, 			{
				"box" : 				{
					"annotation" : "A remote stereo audio  sender.",
					"bgcolor" : [ 0.780392156862745, 0.0, 1.0, 1.0 ],
					"bgmode" : 0,
					"border" : 0,
					"clickthrough" : 0,
					"enablehscroll" : 0,
					"enablevscroll" : 0,
					"id" : "obj-170",
					"lockeddragscroll" : 0,
					"maxclass" : "bpatcher",
					"name" : "AudioSend2.maxpat",
					"numinlets" : 3,
					"numoutlets" : 3,
					"offset" : [ 0.0, 0.0 ],
					"outlettype" : [ "signal", "signal", "" ],
					"patching_rect" : [ 249.541422247886658, 875.083334416151047, 69.0, 39.0 ],
					"presentation" : 1,
					"presentation_rect" : [ 573.423725843429565, 684.0, 69.0, 39.0 ],
					"varname" : "AudioSend2[1]",
					"viewvisibility" : 1
				}

			}
, 			{
				"box" : 				{
					"annotation" : "A remote stereo audio  receiver.",
					"bgcolor" : [ 0.780392156862745, 0.0, 1.0, 1.0 ],
					"bgmode" : 0,
					"border" : 0,
					"clickthrough" : 0,
					"enablehscroll" : 0,
					"enablevscroll" : 0,
					"id" : "obj-164",
					"lockeddragscroll" : 0,
					"maxclass" : "bpatcher",
					"name" : "AudioReceive.maxpat",
					"numinlets" : 3,
					"numoutlets" : 3,
					"offset" : [ 0.0, 0.0 ],
					"outlettype" : [ "signal", "signal", "" ],
					"patching_rect" : [ 475.041422247886658, 294.0, 69.0, 39.0 ],
					"presentation" : 1,
					"presentation_rect" : [ 573.423725843429565, 313.516949415206909, 69.0, 39.0 ],
					"varname" : "AudioReceive[1]",
					"viewvisibility" : 1
				}

			}
, 			{
				"box" : 				{
					"bgmode" : 0,
					"border" : 0,
					"clickthrough" : 0,
					"enablehscroll" : 0,
					"enablevscroll" : 0,
					"extract" : 1,
					"id" : "obj-35",
					"lockeddragscroll" : 0,
					"maxclass" : "bpatcher",
					"name" : "bp.Gigaverb.maxpat",
					"numinlets" : 2,
					"numoutlets" : 2,
					"offset" : [ 0.0, 0.0 ],
					"outlettype" : [ "signal", "signal" ],
					"patching_rect" : [ 43.189569473266602, 352.0, 332.0, 116.0 ],
					"presentation" : 1,
					"presentation_rect" : [ 267.0, 98.872872829437256, 332.0, 116.0 ],
					"varname" : "bp.Gigaverb",
					"viewvisibility" : 1
				}

			}
, 			{
				"box" : 				{
					"id" : "obj-6",
					"maxclass" : "comment",
					"numinlets" : 1,
					"numoutlets" : 0,
					"patching_rect" : [ 165.541422247886658, 928.083334416151047, 175.0, 20.0 ],
					"text" : "mixblocks for sound control"
				}

			}
, 			{
				"box" : 				{
					"id" : "obj-99",
					"maxclass" : "ezdac~",
					"numinlets" : 2,
					"numoutlets" : 0,
					"patching_rect" : [ 448.541422247886658, 516.0, 45.0, 45.0 ],
					"presentation" : 1,
					"presentation_rect" : [ 834.457629442214966, 313.516949415206909, 45.0, 45.0 ]
				}

			}
, 			{
				"box" : 				{
					"annotation" : "A stereo \"double-shelving\" EQ module.",
					"bgmode" : 0,
					"border" : 0,
					"clickthrough" : 0,
					"enablehscroll" : 0,
					"enablevscroll" : 0,
					"id" : "obj-63",
					"lockeddragscroll" : 0,
					"maxclass" : "bpatcher",
					"name" : "AudioEQ.maxpat",
					"numinlets" : 3,
					"numoutlets" : 3,
					"offset" : [ 0.0, 0.0 ],
					"outlettype" : [ "signal", "signal", "" ],
					"patching_rect" : [ 342.041422247886658, 562.0, 69.0, 149.0 ],
					"presentation" : 1,
					"presentation_rect" : [ 742.516948223114014, 370.983050584793091, 69.0, 149.0 ],
					"varname" : "AudioEQ[1]",
					"viewvisibility" : 1
				}

			}
, 			{
				"box" : 				{
					"annotation" : "A stereo \"double-shelving\" EQ module.",
					"bgmode" : 0,
					"border" : 0,
					"clickthrough" : 0,
					"enablehscroll" : 0,
					"enablevscroll" : 0,
					"id" : "obj-62",
					"lockeddragscroll" : 0,
					"maxclass" : "bpatcher",
					"name" : "AudioEQ.maxpat",
					"numinlets" : 3,
					"numoutlets" : 3,
					"offset" : [ 0.0, 0.0 ],
					"outlettype" : [ "signal", "signal", "" ],
					"patching_rect" : [ 160.541422247886658, 569.083334416151047, 69.0, 149.0 ],
					"presentation" : 1,
					"presentation_rect" : [ 573.423725843429565, 371.0, 69.0, 149.0 ],
					"varname" : "AudioEQ",
					"viewvisibility" : 1
				}

			}
, 			{
				"box" : 				{
					"annotation" : "A stereo/dual mono audio output chooser.",
					"bgcolor" : [ 0.780392156862745, 0.0, 1.0, 1.0 ],
					"bgmode" : 0,
					"border" : 0,
					"clickthrough" : 0,
					"enablehscroll" : 0,
					"enablevscroll" : 0,
					"id" : "obj-37",
					"lockeddragscroll" : 0,
					"maxclass" : "bpatcher",
					"name" : "AudioOutput.maxpat",
					"numinlets" : 3,
					"numoutlets" : 3,
					"offset" : [ 0.0, 0.0 ],
					"outlettype" : [ "signal", "signal", "" ],
					"patching_rect" : [ 342.041422247886658, 879.0, 69.0, 29.0 ],
					"presentation" : 1,
					"presentation_rect" : [ 1598.0, 1097.0, 69.0, 29.0 ],
					"varname" : "AudioOutput",
					"viewvisibility" : 1
				}

			}
, 			{
				"box" : 				{
					"annotation" : "A simple stereo audio mixing module. ",
					"bgcolor" : [ 0.780392156862745, 0.0, 1.0, 1.0 ],
					"bgmode" : 0,
					"border" : 0,
					"clickthrough" : 0,
					"enablehscroll" : 0,
					"enablevscroll" : 0,
					"id" : "obj-58",
					"lockeddragscroll" : 0,
					"maxclass" : "bpatcher",
					"name" : "AudioMix.maxpat",
					"numinlets" : 3,
					"numoutlets" : 3,
					"offset" : [ 0.0, 0.0 ],
					"outlettype" : [ "signal", "signal", "" ],
					"patching_rect" : [ 342.041422247886658, 720.0, 69.0, 139.0 ],
					"presentation" : 1,
					"presentation_rect" : [ 742.516948223114014, 534.262711763381958, 69.0, 139.0 ],
					"varname" : "AudioMix[11]",
					"viewvisibility" : 1
				}

			}
, 			{
				"box" : 				{
					"annotation" : "A remote stereo audio  receiver.",
					"bgcolor" : [ 0.780392156862745, 0.0, 1.0, 1.0 ],
					"bgmode" : 0,
					"border" : 0,
					"clickthrough" : 0,
					"enablehscroll" : 0,
					"enablevscroll" : 0,
					"id" : "obj-56",
					"lockeddragscroll" : 0,
					"maxclass" : "bpatcher",
					"name" : "AudioReceive2.maxpat",
					"numinlets" : 3,
					"numoutlets" : 3,
					"offset" : [ 0.0, 0.0 ],
					"outlettype" : [ "signal", "signal", "" ],
					"patching_rect" : [ 342.041422247886658, 516.0, 69.0, 39.0 ],
					"presentation" : 1,
					"presentation_rect" : [ 742.516948223114014, 313.516949415206909, 69.0, 39.0 ],
					"varname" : "AudioReceive2",
					"viewvisibility" : 1
				}

			}
, 			{
				"box" : 				{
					"annotation" : "A remote stereo audio  receiver.",
					"bgcolor" : [ 0.780392156862745, 0.0, 1.0, 1.0 ],
					"bgmode" : 0,
					"border" : 0,
					"clickthrough" : 0,
					"enablehscroll" : 0,
					"enablevscroll" : 0,
					"id" : "obj-50",
					"lockeddragscroll" : 0,
					"maxclass" : "bpatcher",
					"name" : "AudioReceive.maxpat",
					"numinlets" : 3,
					"numoutlets" : 3,
					"offset" : [ 0.0, 0.0 ],
					"outlettype" : [ "signal", "signal", "" ],
					"patching_rect" : [ 152.189569473266602, 285.0, 69.0, 39.0 ],
					"presentation" : 1,
					"presentation_rect" : [ 658.169490575790405, 313.516949415206909, 69.0, 39.0 ],
					"varname" : "AudioReceive",
					"viewvisibility" : 1
				}

			}
, 			{
				"box" : 				{
					"annotation" : "A simple stereo audio mixing module. ",
					"bgcolor" : [ 0.780392156862745, 0.0, 1.0, 1.0 ],
					"bgmode" : 0,
					"border" : 0,
					"clickthrough" : 0,
					"enablehscroll" : 0,
					"enablevscroll" : 0,
					"id" : "obj-48",
					"lockeddragscroll" : 0,
					"maxclass" : "bpatcher",
					"name" : "AudioMix.maxpat",
					"numinlets" : 3,
					"numoutlets" : 3,
					"offset" : [ 0.0, 0.0 ],
					"outlettype" : [ "signal", "signal", "" ],
					"patching_rect" : [ 160.541422247886658, 726.083334416151047, 69.0, 139.0 ],
					"presentation" : 1,
					"presentation_rect" : [ 573.423725843429565, 534.262711763381958, 69.0, 139.0 ],
					"varname" : "AudioMix[10]",
					"viewvisibility" : 1
				}

			}
, 			{
				"box" : 				{
					"annotation" : "A remote stereo audio  sender.",
					"bgcolor" : [ 0.780392156862745, 0.0, 1.0, 1.0 ],
					"bgmode" : 0,
					"border" : 0,
					"clickthrough" : 0,
					"enablehscroll" : 0,
					"enablevscroll" : 0,
					"id" : "obj-38",
					"lockeddragscroll" : 0,
					"maxclass" : "bpatcher",
					"name" : "AudioSend2.maxpat",
					"numinlets" : 3,
					"numoutlets" : 3,
					"offset" : [ 0.0, 0.0 ],
					"outlettype" : [ "signal", "signal", "" ],
					"patching_rect" : [ 160.541422247886658, 875.083334416151047, 69.0, 39.0 ],
					"presentation" : 1,
					"presentation_rect" : [ 487.62711763381958, 688.762711763381958, 69.0, 39.0 ],
					"varname" : "AudioSend2[9]",
					"viewvisibility" : 1
				}

			}
, 			{
				"box" : 				{
					"annotation" : "A remote stereo audio  sender.",
					"bgcolor" : [ 0.780392156862745, 0.0, 1.0, 1.0 ],
					"bgmode" : 0,
					"border" : 0,
					"clickthrough" : 0,
					"enablehscroll" : 0,
					"enablevscroll" : 0,
					"id" : "obj-79",
					"lockeddragscroll" : 0,
					"maxclass" : "bpatcher",
					"name" : "AudioSend2.maxpat",
					"numinlets" : 3,
					"numoutlets" : 3,
					"offset" : [ 0.0, 0.0 ],
					"outlettype" : [ "signal", "signal", "" ],
					"patching_rect" : [ 73.041422247886658, 874.083334416151047, 69.0, 39.0 ],
					"presentation" : 1,
					"presentation_rect" : [ 658.169490575790405, 684.0, 69.0, 39.0 ],
					"varname" : "AudioSend2[11]",
					"viewvisibility" : 1
				}

			}
, 			{
				"box" : 				{
					"annotation" : "A remote stereo audio  sender.",
					"bgcolor" : [ 0.780392156862745, 0.0, 1.0, 1.0 ],
					"bgmode" : 0,
					"border" : 0,
					"clickthrough" : 0,
					"enablehscroll" : 0,
					"enablevscroll" : 0,
					"id" : "obj-93",
					"lockeddragscroll" : 0,
					"maxclass" : "bpatcher",
					"name" : "AudioSend.maxpat",
					"numinlets" : 3,
					"numoutlets" : 3,
					"offset" : [ 0.0, 0.0 ],
					"outlettype" : [ "signal", "signal", "" ],
					"patching_rect" : [ 73.041422247886658, 673.083334416151047, 69.0, 39.0 ],
					"presentation" : 1,
					"presentation_rect" : [ 487.62711763381958, 634.262711763381958, 69.0, 39.0 ],
					"varname" : "AudioSend[10]",
					"viewvisibility" : 1
				}

			}
, 			{
				"box" : 				{
					"annotation" : "A simple stereo audio mixing module. ",
					"bgcolor" : [ 0.780392156862745, 0.0, 1.0, 1.0 ],
					"bgmode" : 0,
					"border" : 0,
					"clickthrough" : 0,
					"enablehscroll" : 0,
					"enablevscroll" : 0,
					"id" : "obj-101",
					"lockeddragscroll" : 0,
					"maxclass" : "bpatcher",
					"name" : "AudioMix.maxpat",
					"numinlets" : 3,
					"numoutlets" : 3,
					"offset" : [ 0.0, 0.0 ],
					"outlettype" : [ "signal", "signal", "" ],
					"patching_rect" : [ 73.041422247886658, 520.5, 69.0, 139.0 ],
					"presentation" : 1,
					"presentation_rect" : [ 487.62711763381958, 391.762711763381958, 69.0, 139.0 ],
					"varname" : "AudioMix[13]",
					"viewvisibility" : 1
				}

			}
 ],
		"lines" : [ 			{
				"patchline" : 				{
					"destination" : [ "obj-5", 2 ],
					"midpoints" : [ 941.5, 668.0, 875.0, 668.0, 875.0, 545.0, 854.5, 545.0 ],
					"source" : [ "obj-1", 0 ]
				}

			}
, 			{
				"patchline" : 				{
					"destination" : [ "obj-18", 0 ],
					"source" : [ "obj-10", 0 ]
				}

			}
, 			{
				"patchline" : 				{
					"destination" : [ "obj-93", 1 ],
					"source" : [ "obj-101", 1 ]
				}

			}
, 			{
				"patchline" : 				{
					"destination" : [ "obj-93", 0 ],
					"source" : [ "obj-101", 0 ]
				}

			}
, 			{
				"patchline" : 				{
					"destination" : [ "obj-5", 0 ],
					"source" : [ "obj-11", 0 ]
				}

			}
, 			{
				"patchline" : 				{
					"destination" : [ "obj-104", 0 ],
					"source" : [ "obj-110", 0 ]
				}

			}
, 			{
				"patchline" : 				{
					"destination" : [ "obj-104", 0 ],
					"source" : [ "obj-114", 0 ]
				}

			}
, 			{
				"patchline" : 				{
					"destination" : [ "obj-157", 0 ],
					"source" : [ "obj-115", 0 ]
				}

			}
, 			{
				"patchline" : 				{
					"destination" : [ "obj-101", 1 ],
					"midpoints" : [ 732.5, 911.0, 421.0, 911.0, 421.0, 503.0, 107.541422247886658, 503.0 ],
					"order" : 0,
					"source" : [ "obj-12", 0 ]
				}

			}
, 			{
				"patchline" : 				{
					"destination" : [ "obj-101", 0 ],
					"midpoints" : [ 732.5, 911.0, 421.0, 911.0, 421.0, 503.0, 82.541422247886658, 503.0 ],
					"order" : 1,
					"source" : [ "obj-12", 0 ]
				}

			}
, 			{
				"patchline" : 				{
					"destination" : [ "obj-10", 0 ],
					"source" : [ "obj-13", 0 ]
				}

			}
, 			{
				"patchline" : 				{
					"destination" : [ "obj-11", 1 ],
					"source" : [ "obj-14", 0 ]
				}

			}
, 			{
				"patchline" : 				{
					"destination" : [ "obj-124", 0 ],
					"source" : [ "obj-157", 0 ]
				}

			}
, 			{
				"patchline" : 				{
					"destination" : [ "obj-176", 1 ],
					"source" : [ "obj-164", 1 ]
				}

			}
, 			{
				"patchline" : 				{
					"destination" : [ "obj-176", 0 ],
					"source" : [ "obj-164", 0 ]
				}

			}
, 			{
				"patchline" : 				{
					"destination" : [ "obj-170", 1 ],
					"source" : [ "obj-169", 1 ]
				}

			}
, 			{
				"patchline" : 				{
					"destination" : [ "obj-170", 0 ],
					"source" : [ "obj-169", 0 ]
				}

			}
, 			{
				"patchline" : 				{
					"destination" : [ "obj-169", 1 ],
					"midpoints" : [ 672.041422247886658, 502.0, 284.041422247886658, 502.0 ],
					"source" : [ "obj-176", 1 ]
				}

			}
, 			{
				"patchline" : 				{
					"destination" : [ "obj-169", 0 ],
					"midpoints" : [ 426.041422247886658, 502.0, 259.041422247886658, 502.0 ],
					"source" : [ "obj-176", 0 ]
				}

			}
, 			{
				"patchline" : 				{
					"destination" : [ "obj-14", 0 ],
					"source" : [ "obj-18", 0 ]
				}

			}
, 			{
				"patchline" : 				{
					"destination" : [ "obj-64", 0 ],
					"midpoints" : [ 216.621245225270627, 263.0, 709.0, 263.0, 709.0, 134.0, 1107.25, 134.0 ],
					"source" : [ "obj-19", 0 ]
				}

			}
, 			{
				"patchline" : 				{
					"destination" : [ "obj-9", 0 ],
					"source" : [ "obj-2", 0 ]
				}

			}
, 			{
				"patchline" : 				{
					"destination" : [ "obj-13", 0 ],
					"midpoints" : [ 163.371245225270627, 266.0, 709.0, 266.0, 709.0, 143.0, 823.5, 143.0 ],
					"source" : [ "obj-20", 0 ]
				}

			}
, 			{
				"patchline" : 				{
					"destination" : [ "obj-4", 0 ],
					"source" : [ "obj-3", 0 ]
				}

			}
, 			{
				"patchline" : 				{
					"destination" : [ "obj-62", 1 ],
					"midpoints" : [ 365.689569473266602, 502.5, 195.041422247886658, 502.5 ],
					"source" : [ "obj-35", 1 ]
				}

			}
, 			{
				"patchline" : 				{
					"destination" : [ "obj-62", 0 ],
					"midpoints" : [ 52.689569473266602, 511.5, 170.041422247886658, 511.5 ],
					"source" : [ "obj-35", 0 ]
				}

			}
, 			{
				"patchline" : 				{
					"destination" : [ "obj-19", 0 ],
					"source" : [ "obj-4", 3 ]
				}

			}
, 			{
				"patchline" : 				{
					"destination" : [ "obj-20", 0 ],
					"source" : [ "obj-4", 2 ]
				}

			}
, 			{
				"patchline" : 				{
					"destination" : [ "obj-38", 1 ],
					"source" : [ "obj-48", 1 ]
				}

			}
, 			{
				"patchline" : 				{
					"destination" : [ "obj-38", 0 ],
					"source" : [ "obj-48", 0 ]
				}

			}
, 			{
				"patchline" : 				{
					"destination" : [ "obj-12", 1 ],
					"midpoints" : [ 738.5, 779.0, 790.5, 779.0 ],
					"source" : [ "obj-5", 0 ]
				}

			}
, 			{
				"patchline" : 				{
					"destination" : [ "obj-35", 1 ],
					"midpoints" : [ 186.689569473266602, 337.5, 365.689569473266602, 337.5 ],
					"source" : [ "obj-50", 1 ]
				}

			}
, 			{
				"patchline" : 				{
					"destination" : [ "obj-35", 0 ],
					"midpoints" : [ 161.689569473266602, 337.5, 52.689569473266602, 337.5 ],
					"source" : [ "obj-50", 0 ]
				}

			}
, 			{
				"patchline" : 				{
					"destination" : [ "obj-63", 1 ],
					"source" : [ "obj-56", 1 ]
				}

			}
, 			{
				"patchline" : 				{
					"destination" : [ "obj-63", 0 ],
					"source" : [ "obj-56", 0 ]
				}

			}
, 			{
				"patchline" : 				{
					"destination" : [ "obj-37", 1 ],
					"source" : [ "obj-58", 1 ]
				}

			}
, 			{
				"patchline" : 				{
					"destination" : [ "obj-37", 0 ],
					"source" : [ "obj-58", 0 ]
				}

			}
, 			{
				"patchline" : 				{
					"destination" : [ "obj-70", 0 ],
					"source" : [ "obj-61", 0 ]
				}

			}
, 			{
				"patchline" : 				{
					"destination" : [ "obj-48", 1 ],
					"source" : [ "obj-62", 1 ]
				}

			}
, 			{
				"patchline" : 				{
					"destination" : [ "obj-48", 0 ],
					"source" : [ "obj-62", 0 ]
				}

			}
, 			{
				"patchline" : 				{
					"destination" : [ "obj-58", 1 ],
					"source" : [ "obj-63", 1 ]
				}

			}
, 			{
				"patchline" : 				{
					"destination" : [ "obj-58", 0 ],
					"source" : [ "obj-63", 0 ]
				}

			}
, 			{
				"patchline" : 				{
					"destination" : [ "obj-61", 0 ],
					"source" : [ "obj-64", 0 ]
				}

			}
, 			{
				"patchline" : 				{
					"destination" : [ "obj-7", 1 ],
					"source" : [ "obj-65", 0 ]
				}

			}
, 			{
				"patchline" : 				{
					"destination" : [ "obj-5", 1 ],
					"midpoints" : [ 1022.5, 536.0, 796.5, 536.0 ],
					"source" : [ "obj-7", 0 ]
				}

			}
, 			{
				"patchline" : 				{
					"destination" : [ "obj-65", 0 ],
					"source" : [ "obj-70", 0 ]
				}

			}
, 			{
				"patchline" : 				{
					"destination" : [ "obj-79", 1 ],
					"source" : [ "obj-93", 1 ]
				}

			}
, 			{
				"patchline" : 				{
					"destination" : [ "obj-79", 0 ],
					"source" : [ "obj-93", 0 ]
				}

			}
 ],
		"parameters" : 		{
			"obj-101::obj-113" : [ "pan", "Pan", 0 ],
			"obj-101::obj-114" : [ "solo", "Solo", 0 ],
			"obj-101::obj-115" : [ "active", "Active", 0 ],
			"obj-101::obj-116" : [ "gain", "Gain", 0 ],
			"obj-101::obj-30" : [ "qlist", "Qlist", 0 ],
			"obj-101::obj-4" : [ "setname", "Setname", 0 ],
			"obj-11::obj-106" : [ "CV3[10]", "CV3", 0 ],
			"obj-11::obj-107" : [ "Linear[8]", "Linear", 0 ],
			"obj-11::obj-129" : [ "CV2[10]", "CV2", 0 ],
			"obj-11::obj-20" : [ "Mute[20]", "Mute", 0 ],
			"obj-11::obj-24" : [ "Freq[10]", "Freq", 0 ],
			"obj-11::obj-331" : [ "WaveformCloud", "Waveform", 0 ],
			"obj-11::obj-45" : [ "TimeMode", "TimeMode", 1 ],
			"obj-11::obj-46" : [ "Offset[14]", "Offset", 0 ],
			"obj-11::obj-51" : [ "Fatness", "Fatness", 0 ],
			"obj-12::obj-1" : [ "Fade[1]", "Fade", 0 ],
			"obj-12::obj-22" : [ "CV[1]", "CV", 0 ],
			"obj-12::obj-41" : [ "bypass[2]", "bypass", 0 ],
			"obj-164::obj-122" : [ "active[10]", "Active", 0 ],
			"obj-164::obj-35" : [ "bus[5]", "Bus", 0 ],
			"obj-164::obj-88" : [ "gain[8]", "Gain", 0 ],
			"obj-169::obj-113" : [ "pan[3]", "Pan", 0 ],
			"obj-169::obj-114" : [ "solo[3]", "Solo", 0 ],
			"obj-169::obj-115" : [ "active[12]", "Active", 0 ],
			"obj-169::obj-116" : [ "gain[10]", "Gain", 0 ],
			"obj-169::obj-30" : [ "qlist[5]", "Qlist", 0 ],
			"obj-169::obj-4" : [ "setname[5]", "Setname", 0 ],
			"obj-170::obj-122" : [ "active[11]", "Active", 0 ],
			"obj-170::obj-35" : [ "bus[6]", "Bus", 0 ],
			"obj-170::obj-88" : [ "gain[9]", "Gain", 0 ],
			"obj-176::obj-118" : [ "Mix", "Mix", 0 ],
			"obj-176::obj-27" : [ "Feedback", "Feedback", 0 ],
			"obj-176::obj-49" : [ "HPF", "HPF", 0 ],
			"obj-176::obj-50" : [ "LPF", "LPF", 0 ],
			"obj-176::obj-7" : [ "bypass[1]", "bypass", 0 ],
			"obj-176::obj-708" : [ "duration.r", "duration.r", 0 ],
			"obj-176::obj-9" : [ "delay_right", "delay_right", 0 ],
			"obj-176::obj-957" : [ "duration.l", "duration.l", 0 ],
			"obj-176::obj-96" : [ "delay_left", "delay_left", 0 ],
			"obj-1::obj-12" : [ "Mute[24]", "Mute", 0 ],
			"obj-1::obj-20" : [ "Frequency", "Freq", 0 ],
			"obj-35::obj-23" : [ "bypass", "bypass", 0 ],
			"obj-35::obj-28" : [ "Size", "Size", 0 ],
			"obj-35::obj-3" : [ "Regen", "Regen", 0 ],
			"obj-35::obj-60" : [ "Damp", "Damp", 0 ],
			"obj-35::obj-62" : [ "Dry", "Dry", 0 ],
			"obj-35::obj-63" : [ "Early", "Early", 0 ],
			"obj-35::obj-64" : [ "Tail", "Tail", 0 ],
			"obj-35::obj-65" : [ "Spread", "Spread", 0 ],
			"obj-35::obj-66" : [ "Time", "Time", 0 ],
			"obj-37::obj-24" : [ "output", "Output", 0 ],
			"obj-38::obj-122" : [ "active[3]", "Active", 0 ],
			"obj-38::obj-35" : [ "bus[2]", "Bus", 0 ],
			"obj-38::obj-88" : [ "gain[3]", "Gain", 0 ],
			"obj-48::obj-113" : [ "pan[1]", "Pan", 0 ],
			"obj-48::obj-114" : [ "solo[1]", "Solo", 0 ],
			"obj-48::obj-115" : [ "active[4]", "Active", 0 ],
			"obj-48::obj-116" : [ "gain[4]", "Gain", 0 ],
			"obj-48::obj-30" : [ "qlist[1]", "Qlist", 0 ],
			"obj-48::obj-4" : [ "setname[1]", "Setname", 0 ],
			"obj-50::obj-122" : [ "active[5]", "Active", 0 ],
			"obj-50::obj-35" : [ "bus[3]", "Bus", 0 ],
			"obj-50::obj-88" : [ "gain[5]", "Gain", 0 ],
			"obj-56::obj-122" : [ "active[6]", "Active", 0 ],
			"obj-56::obj-35" : [ "bus[4]", "Bus", 0 ],
			"obj-56::obj-88" : [ "gain[6]", "Gain", 0 ],
			"obj-58::obj-113" : [ "pan[2]", "Pan", 0 ],
			"obj-58::obj-114" : [ "solo[2]", "Solo", 0 ],
			"obj-58::obj-115" : [ "active[7]", "Active", 0 ],
			"obj-58::obj-116" : [ "gain[7]", "Gain", 0 ],
			"obj-58::obj-30" : [ "qlist[2]", "Qlist", 0 ],
			"obj-58::obj-4" : [ "setname[2]", "Setname", 0 ],
			"obj-5::obj-1" : [ "Fade", "Fade", 0 ],
			"obj-5::obj-22" : [ "CV", "CV", 0 ],
			"obj-5::obj-41" : [ "bypass[20]", "bypass", 0 ],
			"obj-62::obj-16" : [ "lofreq", "LoFreq", 0 ],
			"obj-62::obj-17" : [ "mid", "Mid", 0 ],
			"obj-62::obj-18" : [ "hifreq", "HiFreq", 0 ],
			"obj-62::obj-19" : [ "lo", "Lo", 0 ],
			"obj-62::obj-28" : [ "init", "Init", 0 ],
			"obj-62::obj-30" : [ "qlist[3]", "Qlist", 0 ],
			"obj-62::obj-36" : [ "hi", "Hi", 0 ],
			"obj-62::obj-4" : [ "setname[3]", "Setname", 0 ],
			"obj-62::obj-9" : [ "active[8]", "Active", 0 ],
			"obj-63::obj-16" : [ "lofreq[1]", "LoFreq", 0 ],
			"obj-63::obj-17" : [ "mid[1]", "Mid", 0 ],
			"obj-63::obj-18" : [ "hifreq[1]", "HiFreq", 0 ],
			"obj-63::obj-19" : [ "lo[1]", "Lo", 0 ],
			"obj-63::obj-28" : [ "init[1]", "Init", 0 ],
			"obj-63::obj-30" : [ "qlist[4]", "Qlist", 0 ],
			"obj-63::obj-36" : [ "hi[1]", "Hi", 0 ],
			"obj-63::obj-4" : [ "setname[4]", "Setname", 0 ],
			"obj-63::obj-9" : [ "active[9]", "Active", 0 ],
			"obj-79::obj-122" : [ "active[2]", "Active", 0 ],
			"obj-79::obj-35" : [ "bus[1]", "Bus", 0 ],
			"obj-79::obj-88" : [ "gain[2]", "Gain", 0 ],
			"obj-7::obj-106" : [ "CV3[4]", "CV3", 0 ],
			"obj-7::obj-12" : [ "Mute[8]", "Mute", 0 ],
			"obj-7::obj-129" : [ "CV2[4]", "CV2", 0 ],
			"obj-7::obj-25" : [ "TimbreCV[1]", "CV", 0 ],
			"obj-7::obj-3" : [ "Timbre[1]", "Timbre", 0 ],
			"obj-7::obj-35::obj-2" : [ "pastebang", "pastebang", 0 ],
			"obj-7::obj-45" : [ "FreqMode[3]", "FreqMode", 0 ],
			"obj-7::obj-46" : [ "Offset[7]", "Offset", 0 ],
			"obj-7::obj-51" : [ "Freq[4]", "Freq", 0 ],
			"obj-7::obj-80" : [ "ColorCV[1]", "CV", 0 ],
			"obj-7::obj-81" : [ "Color[1]", "Color", 0 ],
			"obj-7::obj-9" : [ "Macro[1]", "Macro", 0 ],
			"obj-93::obj-122" : [ "active[1]", "Active", 0 ],
			"obj-93::obj-35" : [ "bus", "Bus", 0 ],
			"obj-93::obj-88" : [ "gain[1]", "Gain", 0 ],
			"parameterbanks" : 			{

			}
,
			"parameter_overrides" : 			{
				"obj-12::obj-1" : 				{
					"parameter_longname" : "Fade[1]"
				}
,
				"obj-12::obj-22" : 				{
					"parameter_longname" : "CV[1]"
				}
,
				"obj-12::obj-41" : 				{
					"parameter_longname" : "bypass[2]"
				}
,
				"obj-164::obj-122" : 				{
					"parameter_longname" : "active[10]"
				}
,
				"obj-164::obj-35" : 				{
					"parameter_longname" : "bus[5]"
				}
,
				"obj-164::obj-88" : 				{
					"parameter_longname" : "gain[8]"
				}
,
				"obj-169::obj-113" : 				{
					"parameter_longname" : "pan[3]"
				}
,
				"obj-169::obj-114" : 				{
					"parameter_longname" : "solo[3]"
				}
,
				"obj-169::obj-115" : 				{
					"parameter_longname" : "active[12]"
				}
,
				"obj-169::obj-116" : 				{
					"parameter_longname" : "gain[10]"
				}
,
				"obj-169::obj-30" : 				{
					"parameter_longname" : "qlist[5]"
				}
,
				"obj-170::obj-122" : 				{
					"parameter_longname" : "active[11]"
				}
,
				"obj-170::obj-88" : 				{
					"parameter_longname" : "gain[9]"
				}
,
				"obj-38::obj-122" : 				{
					"parameter_longname" : "active[3]"
				}
,
				"obj-38::obj-88" : 				{
					"parameter_longname" : "gain[3]"
				}
,
				"obj-48::obj-113" : 				{
					"parameter_longname" : "pan[1]"
				}
,
				"obj-48::obj-114" : 				{
					"parameter_longname" : "solo[1]"
				}
,
				"obj-48::obj-115" : 				{
					"parameter_longname" : "active[4]"
				}
,
				"obj-48::obj-116" : 				{
					"parameter_longname" : "gain[4]"
				}
,
				"obj-48::obj-30" : 				{
					"parameter_longname" : "qlist[1]"
				}
,
				"obj-50::obj-122" : 				{
					"parameter_longname" : "active[5]"
				}
,
				"obj-50::obj-35" : 				{
					"parameter_longname" : "bus[3]"
				}
,
				"obj-50::obj-88" : 				{
					"parameter_longname" : "gain[5]"
				}
,
				"obj-56::obj-122" : 				{
					"parameter_longname" : "active[6]"
				}
,
				"obj-56::obj-88" : 				{
					"parameter_longname" : "gain[6]"
				}
,
				"obj-58::obj-113" : 				{
					"parameter_longname" : "pan[2]"
				}
,
				"obj-58::obj-114" : 				{
					"parameter_longname" : "solo[2]"
				}
,
				"obj-58::obj-115" : 				{
					"parameter_longname" : "active[7]"
				}
,
				"obj-58::obj-116" : 				{
					"parameter_longname" : "gain[7]"
				}
,
				"obj-58::obj-30" : 				{
					"parameter_longname" : "qlist[2]"
				}
,
				"obj-62::obj-30" : 				{
					"parameter_longname" : "qlist[3]"
				}
,
				"obj-62::obj-9" : 				{
					"parameter_longname" : "active[8]"
				}
,
				"obj-63::obj-16" : 				{
					"parameter_longname" : "lofreq[1]"
				}
,
				"obj-63::obj-17" : 				{
					"parameter_longname" : "mid[1]"
				}
,
				"obj-63::obj-18" : 				{
					"parameter_longname" : "hifreq[1]"
				}
,
				"obj-63::obj-19" : 				{
					"parameter_longname" : "lo[1]"
				}
,
				"obj-63::obj-28" : 				{
					"parameter_longname" : "init[1]"
				}
,
				"obj-63::obj-30" : 				{
					"parameter_longname" : "qlist[4]"
				}
,
				"obj-63::obj-36" : 				{
					"parameter_longname" : "hi[1]"
				}
,
				"obj-63::obj-9" : 				{
					"parameter_longname" : "active[9]"
				}
,
				"obj-79::obj-122" : 				{
					"parameter_longname" : "active[2]"
				}
,
				"obj-79::obj-88" : 				{
					"parameter_longname" : "gain[2]"
				}
,
				"obj-93::obj-122" : 				{
					"parameter_longname" : "active[1]"
				}
,
				"obj-93::obj-88" : 				{
					"parameter_longname" : "gain[1]"
				}

			}
,
			"inherited_shortname" : 1
		}
,
		"dependency_cache" : [ 			{
				"name" : "AudioMix.maxpat",
				"bootpath" : "~/Desktop/networkPerformance/patchers",
				"patcherrelativepath" : ".",
				"type" : "JSON",
				"implicit" : 1
			}
, 			{
				"name" : "AudioSend.maxpat",
				"bootpath" : "~/Desktop/networkPerformance/patchers",
				"patcherrelativepath" : ".",
				"type" : "JSON",
				"implicit" : 1
			}
, 			{
				"name" : "AudioSend2.maxpat",
				"bootpath" : "~/Desktop/networkPerformance/patchers",
				"patcherrelativepath" : ".",
				"type" : "JSON",
				"implicit" : 1
			}
, 			{
				"name" : "AudioReceive.maxpat",
				"bootpath" : "~/Desktop/networkPerformance/patchers",
				"patcherrelativepath" : ".",
				"type" : "JSON",
				"implicit" : 1
			}
, 			{
				"name" : "AudioReceive2.maxpat",
				"bootpath" : "~/Desktop/networkPerformance/patchers",
				"patcherrelativepath" : ".",
				"type" : "JSON",
				"implicit" : 1
			}
, 			{
				"name" : "AudioOutput.maxpat",
				"bootpath" : "~/Desktop/networkPerformance/patchers",
				"patcherrelativepath" : ".",
				"type" : "JSON",
				"implicit" : 1
			}
, 			{
				"name" : "AudioEQ.maxpat",
				"bootpath" : "~/Desktop/networkPerformance/patchers",
				"patcherrelativepath" : ".",
				"type" : "JSON",
				"implicit" : 1
			}
, 			{
				"name" : "bp.Gigaverb.maxpat",
				"bootpath" : "~/Desktop/networkPerformance/patchers",
				"patcherrelativepath" : ".",
				"type" : "JSON",
				"implicit" : 1
			}
, 			{
				"name" : "bp.Sync Delay.maxpat",
				"bootpath" : "~/Desktop/networkPerformance/patchers",
				"patcherrelativepath" : ".",
				"type" : "JSON",
				"implicit" : 1
			}
, 			{
				"name" : "M4L.bal2~.maxpat",
				"bootpath" : "~/Desktop/networkPerformance/patchers",
				"patcherrelativepath" : ".",
				"type" : "JSON",
				"implicit" : 1
			}
, 			{
				"name" : "bp.Cloud.maxpat",
				"bootpath" : "~/Desktop/networkPerformance/patchers",
				"patcherrelativepath" : ".",
				"type" : "JSON",
				"implicit" : 1
			}
, 			{
				"name" : "bp.Macro Oscillator.maxpat",
				"bootpath" : "~/Desktop/networkPerformance/patchers",
				"patcherrelativepath" : ".",
				"type" : "JSON",
				"implicit" : 1
			}
, 			{
				"name" : "background_sm.maxpat",
				"bootpath" : "~/Desktop/networkPerformance/patchers",
				"patcherrelativepath" : ".",
				"type" : "JSON",
				"implicit" : 1
			}
, 			{
				"name" : "bp.Detuned Ring Modulated Sines.maxpat",
				"bootpath" : "~/Desktop/networkPerformance/patchers",
				"patcherrelativepath" : ".",
				"type" : "JSON",
				"implicit" : 1
			}
, 			{
				"name" : "pastebang.maxpat",
				"bootpath" : "~/Desktop/networkPerformance/patchers",
				"patcherrelativepath" : ".",
				"type" : "JSON",
				"implicit" : 1
			}
, 			{
				"name" : "bp.LFO.maxpat",
				"bootpath" : "~/Desktop/networkPerformance/patchers",
				"patcherrelativepath" : ".",
				"type" : "JSON",
				"implicit" : 1
			}
, 			{
				"name" : "bp.Xfade.maxpat",
				"bootpath" : "~/Desktop/networkPerformance/patchers",
				"patcherrelativepath" : ".",
				"type" : "JSON",
				"implicit" : 1
			}
, 			{
				"name" : "M4L.cross1~.maxpat",
				"bootpath" : "~/Desktop/networkPerformance/patchers",
				"patcherrelativepath" : ".",
				"type" : "JSON",
				"implicit" : 1
			}
 ],
		"autosave" : 0,
		"styles" : [ 			{
				"name" : "Audiomix",
				"default" : 				{
					"bgfillcolor" : 					{
						"type" : "gradient",
						"color1" : [ 0.376471, 0.384314, 0.4, 1.0 ],
						"color2" : [ 0.290196, 0.309804, 0.301961, 1.0 ],
						"color" : [ 0.290196, 0.309804, 0.301961, 1.0 ],
						"angle" : 270.0,
						"proportion" : 0.39
					}

				}
,
				"parentstyle" : "",
				"multi" : 0
			}
, 			{
				"name" : "Default M4L",
				"default" : 				{
					"patchlinecolor" : [ 0.290196, 0.309804, 0.301961, 0.85 ],
					"fontname" : [ "Arial Bold" ],
					"fontsize" : [ 11.0 ]
				}
,
				"parentstyle" : "",
				"multi" : 0
			}
, 			{
				"name" : "Default M4L Poletti",
				"default" : 				{
					"patchlinecolor" : [ 0.290196, 0.309804, 0.301961, 0.85 ],
					"fontname" : [ "Arial Bold" ],
					"fontsize" : [ 10.0 ]
				}
,
				"parentstyle" : "",
				"multi" : 0
			}
, 			{
				"name" : "Default M4L-1",
				"default" : 				{
					"fontname" : [ "Arial" ],
					"fontface" : [ 1 ],
					"bgfillcolor" : 					{
						"type" : "gradient",
						"color1" : [ 0.376471, 0.384314, 0.4, 1.0 ],
						"color2" : [ 0.290196, 0.309804, 0.301961, 1.0 ],
						"color" : [ 0.290196, 0.309804, 0.301961, 1.0 ],
						"angle" : 270.0,
						"proportion" : 0.39
					}
,
					"fontsize" : [ 11.0 ]
				}
,
				"parentstyle" : "",
				"multi" : 0
			}
, 			{
				"name" : "Max 12 Regular",
				"parentstyle" : "",
				"multi" : 0
			}
, 			{
				"name" : "myCoolTheme",
				"default" : 				{
					"fontface" : [ 1 ],
					"bgfillcolor" : 					{
						"type" : "gradient",
						"color1" : [ 0.376471, 0.384314, 0.4, 1.0 ],
						"color2" : [ 0.290196, 0.309804, 0.301961, 1.0 ],
						"color" : [ 0.290196, 0.309804, 0.301961, 1.0 ],
						"angle" : 270.0,
						"proportion" : 0.39
					}
,
					"fontsize" : [ 12.0 ]
				}
,
				"parentstyle" : "",
				"multi" : 0
			}
 ]
	}

}
